<mxfile host="app.diagrams.net" agent="Mozilla/5.0 (Windows NT 10.0; Win64; x64) AppleWebKit/537.36 (KHTML, like Gecko) Chrome/132.0.0.0 Safari/537.36 Edg/132.0.0.0" version="24.9.3">
  <diagram name="第 1 页" id="ZGuFh78yXAzMubD7Q8wo">
    <mxGraphModel dx="527" dy="334" grid="1" gridSize="10" guides="1" tooltips="1" connect="1" arrows="1" fold="1" page="1" pageScale="1" pageWidth="827" pageHeight="1169" math="0" shadow="0">
      <root>
        <mxCell id="0" />
        <mxCell id="1" parent="0" />
        <mxCell id="iyStwdfwI3cZhbphhSyN-3" style="edgeStyle=orthogonalEdgeStyle;rounded=0;orthogonalLoop=1;jettySize=auto;html=1;entryX=0.5;entryY=0;entryDx=0;entryDy=0;" edge="1" parent="1" source="iyStwdfwI3cZhbphhSyN-1" target="iyStwdfwI3cZhbphhSyN-2">
          <mxGeometry relative="1" as="geometry" />
        </mxCell>
        <mxCell id="iyStwdfwI3cZhbphhSyN-1" value="DingV" style="rounded=0;whiteSpace=wrap;html=1;" vertex="1" parent="1">
          <mxGeometry x="400" y="10" width="66" height="30" as="geometry" />
        </mxCell>
        <mxCell id="iyStwdfwI3cZhbphhSyN-2" value="RootCSP" style="rounded=0;whiteSpace=wrap;html=1;" vertex="1" parent="1">
          <mxGeometry x="400" y="70" width="66" height="30" as="geometry" />
        </mxCell>
        <mxCell id="iyStwdfwI3cZhbphhSyN-4" value="&lt;span style=&quot;color: rgba(0, 0, 0, 0); font-family: monospace; font-size: 0px; text-align: start; text-wrap-mode: nowrap;&quot;&gt;UUuu&lt;/span&gt;" style="rounded=0;whiteSpace=wrap;html=1;" vertex="1" parent="1">
          <mxGeometry x="320" y="130" width="66" height="30" as="geometry" />
        </mxCell>
        <mxCell id="iyStwdfwI3cZhbphhSyN-5" value="FileCSP" style="rounded=0;whiteSpace=wrap;html=1;" vertex="1" parent="1">
          <mxGeometry x="414" y="130" width="66" height="30" as="geometry" />
        </mxCell>
        <mxCell id="iyStwdfwI3cZhbphhSyN-6" value="UserCSP" style="text;html=1;align=center;verticalAlign=middle;resizable=0;points=[];autosize=1;strokeColor=none;fillColor=none;" vertex="1" parent="1">
          <mxGeometry x="318" y="130" width="70" height="30" as="geometry" />
        </mxCell>
        <mxCell id="iyStwdfwI3cZhbphhSyN-7" value="LogCSP" style="rounded=0;whiteSpace=wrap;html=1;" vertex="1" parent="1">
          <mxGeometry x="510" y="130" width="66" height="30" as="geometry" />
        </mxCell>
        <mxCell id="iyStwdfwI3cZhbphhSyN-8" value="RootCSP" style="rounded=0;whiteSpace=wrap;html=1;" vertex="1" parent="1">
          <mxGeometry x="322" y="220" width="66" height="30" as="geometry" />
        </mxCell>
        <mxCell id="iyStwdfwI3cZhbphhSyN-9" value="RootCSP" style="rounded=0;whiteSpace=wrap;html=1;" vertex="1" parent="1">
          <mxGeometry x="562" y="230" width="66" height="30" as="geometry" />
        </mxCell>
        <mxCell id="iyStwdfwI3cZhbphhSyN-10" value="RootCSP" style="rounded=0;whiteSpace=wrap;html=1;" vertex="1" parent="1">
          <mxGeometry x="400" y="240" width="66" height="30" as="geometry" />
        </mxCell>
        <mxCell id="iyStwdfwI3cZhbphhSyN-11" value="RootCSP" style="rounded=0;whiteSpace=wrap;html=1;" vertex="1" parent="1">
          <mxGeometry x="480" y="240" width="66" height="30" as="geometry" />
        </mxCell>
      </root>
    </mxGraphModel>
  </diagram>
</mxfile>
